HIERARCHY
ROOT joint_0
{
	OFFSET 0.000000 0.000000 0.000000
	CHANNELS 6 Xposition Yposition Zposition Zrotation Yrotation Xrotation 
	JOINT joint_1
	{
		OFFSET 6.579712 -2.778931 100.531982
		CHANNELS 3 Zrotation Yrotation Xrotation
		JOINT joint_2
		{
			OFFSET -3.313232 -1.302856 91.974976
			CHANNELS 3 Zrotation Yrotation Xrotation
			JOINT joint_3
			{
				OFFSET -3.421509 -1.641846 91.864014
				CHANNELS 3 Zrotation Yrotation Xrotation
				JOINT joint_4
				{
					OFFSET 7.697388 -4.642578 123.278931
					CHANNELS 3 Zrotation Yrotation Xrotation
					JOINT joint_5
					{
						OFFSET 24.842529 -5.941528 79.695068
						CHANNELS 3 Zrotation Yrotation Xrotation
						End Site
						{
							OFFSET 0.000000 0.000000 0.000000
						}
					}
				}
				JOINT joint_6
				{
					OFFSET -0.159668 -29.112976 68.364014
					CHANNELS 3 Zrotation Yrotation Xrotation
					JOINT joint_7
					{
						OFFSET -18.356079 -115.987061 -20.069092
						CHANNELS 3 Zrotation Yrotation Xrotation
						JOINT joint_8
						{
							OFFSET 31.719482 -11.733276 -267.170898
							CHANNELS 3 Zrotation Yrotation Xrotation
							JOINT joint_9
							{
								OFFSET 29.329956 -5.879517 -234.654053
								CHANNELS 3 Zrotation Yrotation Xrotation
								End Site
								{
									OFFSET 0.000000 0.000000 0.000000
								}
							}
						}
					}
				}
				JOINT joint_10
				{
					OFFSET 8.802979 23.897949 69.798950
					CHANNELS 3 Zrotation Yrotation Xrotation
					JOINT joint_11
					{
						OFFSET 21.159058 115.524292 -19.981934
						CHANNELS 3 Zrotation Yrotation Xrotation
						JOINT joint_12
						{
							OFFSET 18.809204 5.403442 -268.593018
							CHANNELS 3 Zrotation Yrotation Xrotation
							JOINT joint_13
							{
								OFFSET 20.807861 0.421265 -235.639038
								CHANNELS 3 Zrotation Yrotation Xrotation
								End Site
								{
									OFFSET 0.000000 0.000000 0.000000
								}
							}
						}
					}
				}
			}
		}
	}
	JOINT joint_14
	{
		OFFSET -9.713379 -79.513916 -99.348022
		CHANNELS 3 Zrotation Yrotation Xrotation
		JOINT joint_15
		{
			OFFSET -40.607788 -6.518372 -502.938019
			CHANNELS 3 Zrotation Yrotation Xrotation
			JOINT joint_16
			{
				OFFSET -19.807617 -7.437378 -399.590012
				CHANNELS 3 Zrotation Yrotation Xrotation
				JOINT joint_17
				{
					OFFSET 171.701660 -44.751282 -77.782000
					CHANNELS 3 Zrotation Yrotation Xrotation
					End Site
					{
						OFFSET 0.000000 0.000000 0.000000
					}
				}
			}
		}
	}
	JOINT joint_18
	{
		OFFSET 17.854858 79.618652 -98.128052
		CHANNELS 3 Zrotation Yrotation Xrotation
		JOINT joint_19
		{
			OFFSET -24.848877 16.861816 -503.722992
			CHANNELS 3 Zrotation Yrotation Xrotation
			JOINT joint_20
			{
				OFFSET -30.162476 14.470093 -398.750008
				CHANNELS 3 Zrotation Yrotation Xrotation
				JOINT joint_21
				{
					OFFSET 176.096680 -10.987549 -80.021000
					CHANNELS 3 Zrotation Yrotation Xrotation
					End Site
					{
						OFFSET 0.000000 0.000000 0.000000
					}
				}
			}
		}
	}
}
MOTION
Frames: 8
Frame Time: 0.016667
-2256.848389 967.769897 1100.729980 -10.882329 11.957290 2.653281 -1.436932 -4.264190 3.787688 -1.261514 0.644290 -0.777934 -1.153285 -0.898726 0.592701 -2.496508 -10.065600 7.390980 0.000000 0.000000 0.000000 -8.141437 -3.512223 -11.031485 -2.365415 -9.817079 -5.589633 -174.304095 -75.044936 -176.920344 0.000000 0.000000 0.000000 9.281345 -11.395494 8.632346 9.043013 7.078911 -5.355639 -170.599056 -61.104068 156.441637 0.000000 0.000000 0.000000 1.637624 -22.955371 -15.448308 -3.879557 20.415126 7.104850 -5.436814 3.327638 -1.347811 0.000000 0.000000 0.000000 2.644255 -9.638209 -4.118525 3.235012 31.067998 1.210384 0.180311 5.183800 0.427651 0.000000 0.000000 0.000000 
-2248.766846 963.813965 1098.618042 -8.811390 11.752054 3.081820 -1.601486 -3.555530 3.503088 -1.582070 0.597618 -0.693582 -1.500901 -0.758743 0.624975 -2.552350 -9.935944 7.508630 0.000000 0.000000 0.000000 -8.066709 -3.793702 -11.132511 -2.570689 -9.583962 -5.411348 -174.803444 -74.489911 -176.898924 0.000000 0.000000 0.000000 8.494309 -12.525975 8.791434 8.764111 6.524264 -5.684612 -170.682520 -62.251578 157.262674 0.000000 0.000000 0.000000 1.345275 -22.453730 -15.599661 -4.474334 21.040165 6.802148 -6.102331 2.676973 -1.781592 0.000000 0.000000 0.000000 1.784490 -12.493800 -2.885893 2.462124 37.243217 -0.103549 -1.909744 6.623370 -0.259678 0.000000 0.000000 0.000000 
-2241.055420 959.639465 1096.265015 -6.400904 11.330470 3.368709 -1.915215 -2.616437 3.596111 -1.927531 0.509239 -0.769473 -1.794326 -0.583166 0.649350 -2.598179 -9.771466 7.603376 0.000000 0.000000 0.000000 -7.859931 -3.914165 -11.197692 -2.799525 -9.186458 -5.279816 -175.381011 -73.791644 -176.933441 0.000000 0.000000 0.000000 7.658755 -13.680246 8.845522 8.641456 5.866672 -5.843036 -170.728306 -63.356502 157.674791 0.000000 0.000000 0.000000 0.904706 -21.788481 -15.622656 -5.349710 23.432314 6.856753 -7.382242 0.510509 -2.830304 0.000000 0.000000 0.000000 0.864444 -15.682560 -1.213603 1.570532 43.922365 -1.645070 -4.403979 8.965923 -1.000239 0.000000 0.000000 0.000000 
-2233.119629 955.573364 1093.656006 -4.163645 10.927571 3.343887 -2.383912 -1.588608 4.073213 -2.233015 0.351307 -0.932649 -1.944912 -0.404202 0.712641 -2.634599 -9.627775 7.711750 0.000000 0.000000 0.000000 -7.674324 -4.106537 -11.314333 -3.194578 -8.835658 -5.260654 -175.983666 -73.195142 -176.642525 0.000000 0.000000 0.000000 6.966452 -14.785775 8.864475 8.744474 5.262591 -5.869481 -170.621523 -63.991394 157.541671 0.000000 0.000000 0.000000 0.486577 -20.865434 -15.287498 -6.177817 25.235411 6.942371 -8.536495 -1.372848 -3.747272 0.000000 0.000000 0.000000 0.448412 -18.831500 0.545850 1.024453 50.001250 -2.584572 -5.751247 10.870207 -1.352874 0.000000 0.000000 0.000000 
-2224.810791 951.430481 1090.494019 -2.043915 10.726529 2.942246 -3.101826 -0.711852 4.939624 -2.532726 0.217953 -1.143048 -1.972286 -0.250371 0.868874 -2.656224 -9.524004 7.844089 0.000000 0.000000 0.000000 -7.568107 -4.429950 -11.573739 -3.921429 -8.565576 -5.450452 -176.656598 -72.777631 -175.637357 0.000000 0.000000 0.000000 6.481149 -15.778693 8.936179 9.119924 4.813212 -5.823710 -170.316997 -63.965981 156.794652 0.000000 0.000000 0.000000 0.100789 -19.669453 -14.446828 -6.910011 25.632973 6.900099 -9.296312 -2.721467 -4.382514 0.000000 0.000000 0.000000 0.566359 -22.176117 2.366746 0.795665 55.744544 -2.806357 -5.001575 11.177036 -1.123537 0.000000 0.000000 0.000000 
-2216.279785 947.394958 1087.076050 -0.052039 10.627261 2.290040 -4.068936 0.178872 6.092921 -2.759399 0.058283 -1.409938 -1.793119 -0.121926 1.061824 -2.659772 -9.437821 7.981739 0.000000 0.000000 0.000000 -7.494404 -4.818968 -11.894957 -4.780528 -8.308980 -5.755309 -177.346378 -72.425867 -174.360015 0.000000 0.000000 0.000000 6.125090 -16.705715 9.010403 9.765610 4.413966 -5.687072 -169.834331 -63.423624 155.462096 0.000000 0.000000 0.000000 -0.316642 -18.351158 -13.236260 -7.571646 25.519805 6.791349 -9.895230 -3.964630 -4.929786 0.000000 0.000000 0.000000 0.824917 -25.704069 4.216614 0.529751 61.171659 -2.751141 -2.803370 10.307451 -0.510023 0.000000 0.000000 0.000000 
-2207.390381 944.351013 1084.284058 1.292738 10.594328 1.694553 -4.940786 1.138718 7.037536 -2.766102 -0.152897 -1.612193 -1.394603 0.001723 1.190589 -2.662368 -9.362267 8.110600 0.000000 0.000000 0.000000 -7.468690 -5.304320 -12.098410 -5.391112 -8.129816 -5.958684 -177.881644 -72.093395 -173.619819 0.000000 0.000000 0.000000 5.874930 -17.702960 8.957040 10.678261 3.942302 -5.380345 -169.133062 -62.402712 153.530913 0.000000 0.000000 0.000000 -0.658606 -17.282037 -12.117083 -8.022514 25.356363 6.596046 -10.328140 -4.874856 -5.322884 0.000000 0.000000 0.000000 1.248387 -28.936284 5.692313 0.372765 65.389063 -2.575878 0.204268 8.620746 0.378599 0.000000 0.000000 0.000000 
-2198.189941 942.611328 1082.374023 1.785258 10.676149 1.330291 -5.405285 2.004887 7.453939 -2.533098 -0.340571 -1.662881 -0.916525 0.163976 1.227558 -2.683986 -9.308955 8.238980 0.000000 0.000000 0.000000 -7.523779 -5.896130 -12.022263 -5.590689 -8.104001 -5.988340 -178.176740 -71.724867 -173.855199 0.000000 0.000000 0.000000 5.795974 -18.999539 8.640102 12.105762 3.347810 -4.735386 -168.019938 -60.516911 150.499495 0.000000 0.000000 0.000000 -0.827133 -16.659389 -11.365891 -8.264237 25.326993 6.324224 -10.645857 -5.450671 -5.580826 0.000000 0.000000 0.000000 2.171356 -31.748222 6.634395 0.763491 68.218298 -2.303370 4.429581 5.607067 1.775071 0.000000 0.000000 0.000000 
